<svg width="395" height="317" xmlns:xlink="http://www.w3.org/1999/xlink" xmlns="http://www.w3.org/2000/svg"><defs><linearGradient id="a"><stop style="stop-color:#1e1e1e;stop-opacity:1" offset="0"/><stop style="stop-color:#121212;stop-opacity:1" offset="1"/></linearGradient><linearGradient xlink:href="#a" id="b" x1="0" y1="158.5" x2="395" y2="158.5" gradientUnits="userSpaceOnUse"/></defs><path style="fill:url(#b);stroke:#05927d;fill-opacity:1;fill-rule:nonzero;stroke-width:1;stroke-dasharray:none;stroke-opacity:1" d="M214 189c6.619 13.348 31.273-11.653 36.101-18 17.731-23.307 27.124-50.919 47.069-73 10.901-12.069 23.742-23.205 36.83-32.846 7.026-5.175 16.365-9.531 22-16.154-31.268 10.285-69.765 38.376-87.561 66-14.548 22.582-27.052 64.505-54.439 74M40 52v1c27.81 14.805 55.793 38.364 74.09 64 12.078 16.922 19.7 36.654 32.579 53 6.634 8.419 14.934 15.134 24.331 20.229 5.466 2.964 10.608 5.496 14-1.229-29.42-12.677-39.381-47.083-55.696-72C114.982 95.127 93.929 81.329 72 68.2 62.25 62.362 51.076 54.792 40 52m154.001 81.757c-12.615 4.511-10.63 21.053-5.692 30.243 2.237 4.162 5.681 11.399 11.601 9.238 9.766-3.564 13.755-21.551 10-30.238-2.436-5.637-9.358-11.586-15.909-9.243M222 200v5c33.737-1.449 60.63-27.252 89-42.219 25.565-13.488 55.467-17.192 84-17.781-6.924-2.933-16.517-2.379-24-3.075-33.009-3.069-63.36 5.886-91 23.936-17.555 11.464-37.081 29.657-58 34.139M0 144v1c19.77.408 44.288 2.836 63 9.44 25.837 9.119 46.957 25.871 71 38.302 8.269 4.275 37.143 19.837 43 8.258-32.979-7.651-59.693-37.389-91-50.29-28.911-11.915-56.034-6.793-86-6.71m196 45.654c-23.041 7.102-18.242 55.124 6.996 46.492 12.898-4.412 15.819-25.309 10.601-36.146-3.115-6.469-9.909-12.716-17.597-10.346M36 248c8.919-6.283 15.609-14.888 25-20.771 17.09-10.705 36.773-16.525 57-15.139 9.611.658 18.552 4.086 28 4.91-5.651 12.257-26.44 18.868-37 26.76-22.873 17.094-26.728 47.547-16 73.24h1c-2.329-18.431-.281-38.001 11.899-52.91 6.024-7.375 14.667-11.862 22.097-17.593C139.935 237.288 153.323 225.318 162 213c-11.986-1.795-23.095-8.26-35-10.621-30.456-6.042-68.929 2.245-83.633 31.606-2.662 5.316-6.94 7.655-7.367 14.015m200-35c11.973 23.655 41.419 32.822 57.671 52.015C305.758 279.289 307 299.24 307 317h1c3.907-20.734 7.921-49.342-9.428-65.485C285.818 239.648 259.429 231.888 252 216c30.556-7.005 60.67-4.683 87 13.913 9.131 6.449 15.888 17.578 25 23.087-18.236-53.382-81.967-63.184-128-40m-14 1c-1.69 6.419 3.275 10.741 6.395 16 4.541 7.655 8.789 17.01 9.512 26 1.809 22.487-13.083 36.645-17.907 57 23.737-16.721 30.903-43.108 24.167-70-2.735-10.918-10.955-25.188-22.167-29m-51 94-11.996-46L174 219c-10.457 1.686-16.849 14.999-19.721 24-6.41 20.094-5.371 53.17 16.721 65m32-65c4.031 11.856 11.991 17.148 12 31 13.989-7.729 8.319-28.515 4-40l-16 9m-21 33 .92-19L194 243c-3.635-2.144-10.331-7.707-14.787-6.292-4.24 1.347-5.951 8.47-6.17 12.292-.595 10.372.453 19.971 8.957 27zM197 0c-.07.244-.162.48-.234.723l.293-.723zm1.969 0c.016.013.036.022.052.035L199 0zM130 5c3.389 19.012 14.243 37.789 18.766 57 7.085 30.088 7.686 61.78 17.89 91 5.942 17.017 14.517 35.091 35.344 32.826 17.754-1.93 25.103-22.131 29.586-36.826 6.97-22.845 6.512-46.675 10.875-70 2.943-15.734 5.941-31.632 10.451-47 2.074-7.067 5.835-13.722 7.088-21h-1c-8.703 20.904-22.808 44.816-23 68h-1c-6.653-27.005-19.1-50.101-32.957-73.797.067.168.128.31.197.483 3.696 6.52 5.21 14.17 7.149 21.32.776 3.02 1.829 5.847 2.908 8.746 6.7 18.51 12.543 37.507 14.795 57.13 1.756 15.22 1.153 30.81-2.764 45.663-1.268 4.485-2.427 9-3.613 13.508-1.994 7.237-4.232 14.545-8.248 20.95-2.617 4.14-6.342 7.929-11.196 9.235-3.425 1.027-7.262.495-10.248-1.484-4.202-2.74-6.94-7.143-9.144-11.541-4.2-8.55-6.453-17.85-9.088-26.953-3.62-11.069-4.996-22.802-4.504-34.418.733-17.912 5.433-35.35 10.623-52.412 4.27-13.807 7.982-27.817 12.776-41.453C181.523 36.086 165.222 55.517 163 81l-10.508-28L131 5z"/></svg>